<?xml version="1.0" encoding="utf-8"?>
<!-- Generator: Adobe Illustrator 22.1.0, SVG Export Plug-In . SVG Version: 6.00 Build 0)  -->
<svg version="1.1" id="Layer_1" xmlns="http://www.w3.org/2000/svg" xmlns:xlink="http://www.w3.org/1999/xlink" x="0px" y="0px"
	 viewBox="0 0 500 500" style="enable-background:new 0 0 500 500;" xml:space="preserve">
<style type="text/css">
	.st0{fill:#222338;}
	.st1{opacity:0.3;fill:#1D0E35;}
	.st2{enable-background:new    ;}
	.st3{fill:#E5E3E8;}
	.st4{fill:#D4CED8;}
	.st5{fill:#E0DDE1;}
	.st6{fill:#F1F1F1;}
	.st7{fill:url(#SVGID_1_);}
	.st8{fill:#1F0159;}
	.st9{fill:#3D2F43;}
	.st10{fill:#10191B;}
	.st11{fill:#242A31;}
	.st12{opacity:0.3;}
	.st13{fill:#50298A;}
	.st14{fill:#693AB0;}
	.st15{fill:#7350BA;}
	.st16{fill:#8125BB;}
	.st17{fill:#AC44EE;}
	.st18{fill:#C574F7;}
	.st19{fill:#FFB700;}
	.st20{fill:#FFC400;}
	.st21{fill:#FFDE38;}
	.st22{fill:#F9F7FC;}
	.st23{fill:#F5F3FB;}
	.st24{opacity:0.2;}
	.st25{fill:#828CC0;}
	.st26{fill:#FFFFFF;}
	.st27{fill:#FFD438;}
	.st28{opacity:0.3;fill:#2A1649;}
	.st29{fill:#0D889F;}
	.st30{fill:#A89317;}
	.st31{clip-path:url(#SVGID_3_);}
	.st32{clip-path:url(#SVGID_5_);enable-background:new    ;}
	.st33{clip-path:url(#SVGID_7_);enable-background:new    ;}
	.st34{clip-path:url(#SVGID_9_);enable-background:new    ;}
	.st35{fill:#0E8FA7;}
	.st36{clip-path:url(#SVGID_11_);}
	.st37{clip-path:url(#SVGID_13_);enable-background:new    ;}
	.st38{opacity:0.3;fill:#190D2B;}
	.st39{clip-path:url(#SVGID_15_);enable-background:new    ;}
	.st40{clip-path:url(#SVGID_17_);}
	.st41{fill:#251B29;}
	.st42{clip-path:url(#SVGID_19_);enable-background:new    ;}
	.st43{clip-path:url(#SVGID_21_);}
	.st44{fill:url(#SVGID_22_);}
	.st45{opacity:0.3;fill:#AC44EE;}
	.st46{opacity:0.5;fill:#B7B5BA;}
	.st47{opacity:0.9;fill:#AC44EE;}
	.st48{opacity:0.9;fill:#8B35D2;}
	.st49{opacity:0.9;}
	.st50{fill:#4C1F8C;}
	.st51{fill:#8B35D2;}
	.st52{opacity:0.9;fill:#4C1F8C;}
	.st53{fill:#F3A984;}
	.st54{fill:#6E4CB3;}
	.st55{fill:#8763CD;}
	.st56{fill:#F5A783;}
	.st57{fill:#EE9C76;}
	.st58{fill:#FFBFA2;}
	.st59{fill:#F8B495;}
	.st60{fill:#C99C83;}
	.st61{fill:#B98C74;}
	.st62{opacity:0.3;fill:#211338;}
	.st63{fill:#FF9900;}
	.st64{clip-path:url(#SVGID_24_);enable-background:new    ;}
	.st65{clip-path:url(#SVGID_26_);enable-background:new    ;}
	.st66{clip-path:url(#SVGID_28_);enable-background:new    ;}
	.st67{clip-path:url(#SVGID_30_);enable-background:new    ;}
	.st68{opacity:0.3;fill:#1E1133;}
	.st69{clip-path:url(#SVGID_32_);enable-background:new    ;}
	.st70{clip-path:url(#SVGID_34_);enable-background:new    ;}
	.st71{clip-path:url(#SVGID_36_);enable-background:new    ;}
	.st72{clip-path:url(#SVGID_38_);enable-background:new    ;}
	.st73{clip-path:url(#SVGID_40_);enable-background:new    ;}
	.st74{clip-path:url(#SVGID_42_);enable-background:new    ;}
	.st75{clip-path:url(#SVGID_44_);enable-background:new    ;}
	.st76{clip-path:url(#SVGID_46_);enable-background:new    ;}
	.st77{clip-path:url(#SVGID_48_);enable-background:new    ;}
	.st78{clip-path:url(#SVGID_50_);enable-background:new    ;}
	.st79{clip-path:url(#SVGID_52_);enable-background:new    ;}
	.st80{clip-path:url(#SVGID_54_);enable-background:new    ;}
	.st81{clip-path:url(#SVGID_56_);enable-background:new    ;}
	.st82{clip-path:url(#SVGID_58_);enable-background:new    ;}
	.st83{clip-path:url(#SVGID_60_);enable-background:new    ;}
	.st84{clip-path:url(#SVGID_62_);enable-background:new    ;}
	.st85{clip-path:url(#SVGID_64_);enable-background:new    ;}
	.st86{clip-path:url(#SVGID_66_);enable-background:new    ;}
	.st87{clip-path:url(#SVGID_68_);enable-background:new    ;}
	.st88{clip-path:url(#SVGID_70_);enable-background:new    ;}
	.st89{clip-path:url(#SVGID_72_);enable-background:new    ;}
	.st90{clip-path:url(#SVGID_74_);enable-background:new    ;}
	.st91{clip-path:url(#SVGID_76_);enable-background:new    ;}
	.st92{clip-path:url(#SVGID_78_);enable-background:new    ;}
	.st93{opacity:0.3;fill:#0E0819;}
	.st94{clip-path:url(#SVGID_80_);enable-background:new    ;}
	.st95{clip-path:url(#SVGID_82_);enable-background:new    ;}
	.st96{clip-path:url(#SVGID_84_);enable-background:new    ;}
	.st97{clip-path:url(#SVGID_86_);enable-background:new    ;}
	.st98{clip-path:url(#SVGID_88_);enable-background:new    ;}
	.st99{clip-path:url(#SVGID_90_);enable-background:new    ;}
	.st100{clip-path:url(#SVGID_92_);enable-background:new    ;}
	.st101{clip-path:url(#SVGID_94_);enable-background:new    ;}
	.st102{clip-path:url(#SVGID_96_);enable-background:new    ;}
	.st103{clip-path:url(#SVGID_98_);enable-background:new    ;}
	.st104{clip-path:url(#SVGID_100_);enable-background:new    ;}
	.st105{clip-path:url(#SVGID_102_);enable-background:new    ;}
	.st106{clip-path:url(#SVGID_104_);enable-background:new    ;}
	.st107{clip-path:url(#SVGID_106_);enable-background:new    ;}
	.st108{clip-path:url(#SVGID_108_);enable-background:new    ;}
	.st109{clip-path:url(#SVGID_110_);enable-background:new    ;}
	.st110{clip-path:url(#SVGID_112_);enable-background:new    ;}
	.st111{clip-path:url(#SVGID_114_);enable-background:new    ;}
	.st112{clip-path:url(#SVGID_116_);enable-background:new    ;}
	.st113{clip-path:url(#SVGID_118_);enable-background:new    ;}
	.st114{clip-path:url(#SVGID_120_);enable-background:new    ;}
	.st115{clip-path:url(#SVGID_122_);enable-background:new    ;}
	.st116{clip-path:url(#SVGID_124_);enable-background:new    ;}
	.st117{clip-path:url(#SVGID_126_);enable-background:new    ;}
	.st118{clip-path:url(#SVGID_128_);enable-background:new    ;}
	.st119{clip-path:url(#SVGID_130_);enable-background:new    ;}
	.st120{clip-path:url(#SVGID_132_);enable-background:new    ;}
	.st121{clip-path:url(#SVGID_134_);enable-background:new    ;}
	.st122{clip-path:url(#SVGID_136_);enable-background:new    ;}
	.st123{clip-path:url(#SVGID_138_);enable-background:new    ;}
	.st124{clip-path:url(#SVGID_140_);enable-background:new    ;}
	.st125{clip-path:url(#SVGID_142_);enable-background:new    ;}
	.st126{clip-path:url(#SVGID_144_);enable-background:new    ;}
	.st127{clip-path:url(#SVGID_146_);enable-background:new    ;}
	.st128{clip-path:url(#SVGID_148_);enable-background:new    ;}
	.st129{clip-path:url(#SVGID_150_);enable-background:new    ;}
	.st130{clip-path:url(#SVGID_152_);enable-background:new    ;}
	.st131{clip-path:url(#SVGID_154_);enable-background:new    ;}
	.st132{clip-path:url(#SVGID_156_);enable-background:new    ;}
	.st133{clip-path:url(#SVGID_158_);enable-background:new    ;}
	.st134{clip-path:url(#SVGID_160_);enable-background:new    ;}
	.st135{clip-path:url(#SVGID_162_);enable-background:new    ;}
	.st136{clip-path:url(#SVGID_164_);enable-background:new    ;}
	.st137{clip-path:url(#SVGID_166_);enable-background:new    ;}
	.st138{clip-path:url(#SVGID_168_);enable-background:new    ;}
	.st139{clip-path:url(#SVGID_170_);enable-background:new    ;}
	.st140{clip-path:url(#SVGID_172_);enable-background:new    ;}
	.st141{clip-path:url(#SVGID_174_);enable-background:new    ;}
	.st142{clip-path:url(#SVGID_176_);enable-background:new    ;}
	.st143{clip-path:url(#SVGID_178_);enable-background:new    ;}
	.st144{clip-path:url(#SVGID_180_);enable-background:new    ;}
	.st145{clip-path:url(#SVGID_182_);enable-background:new    ;}
	.st146{clip-path:url(#SVGID_184_);enable-background:new    ;}
	.st147{clip-path:url(#SVGID_186_);enable-background:new    ;}
	.st148{clip-path:url(#SVGID_188_);enable-background:new    ;}
	.st149{clip-path:url(#SVGID_190_);enable-background:new    ;}
	.st150{clip-path:url(#SVGID_192_);enable-background:new    ;}
	.st151{clip-path:url(#SVGID_194_);enable-background:new    ;}
	.st152{clip-path:url(#SVGID_196_);enable-background:new    ;}
	.st153{clip-path:url(#SVGID_198_);enable-background:new    ;}
	.st154{clip-path:url(#SVGID_200_);enable-background:new    ;}
	.st155{clip-path:url(#SVGID_202_);enable-background:new    ;}
	.st156{clip-path:url(#SVGID_204_);enable-background:new    ;}
	.st157{clip-path:url(#SVGID_206_);enable-background:new    ;}
	.st158{clip-path:url(#SVGID_208_);enable-background:new    ;}
	.st159{clip-path:url(#SVGID_210_);enable-background:new    ;}
	.st160{clip-path:url(#SVGID_212_);enable-background:new    ;}
	.st161{clip-path:url(#SVGID_214_);enable-background:new    ;}
	.st162{clip-path:url(#SVGID_216_);enable-background:new    ;}
	.st163{clip-path:url(#SVGID_218_);enable-background:new    ;}
	.st164{clip-path:url(#SVGID_220_);enable-background:new    ;}
	.st165{clip-path:url(#SVGID_222_);enable-background:new    ;}
	.st166{opacity:0.3;fill:#10091E;}
	.st167{clip-path:url(#SVGID_224_);enable-background:new    ;}
	.st168{clip-path:url(#SVGID_226_);enable-background:new    ;}
	.st169{clip-path:url(#SVGID_228_);enable-background:new    ;}
	.st170{clip-path:url(#SVGID_230_);enable-background:new    ;}
	.st171{clip-path:url(#SVGID_232_);enable-background:new    ;}
	.st172{clip-path:url(#SVGID_234_);enable-background:new    ;}
	.st173{clip-path:url(#SVGID_236_);enable-background:new    ;}
	.st174{clip-path:url(#SVGID_238_);enable-background:new    ;}
	.st175{clip-path:url(#SVGID_240_);enable-background:new    ;}
	.st176{clip-path:url(#SVGID_242_);enable-background:new    ;}
	.st177{clip-path:url(#SVGID_244_);enable-background:new    ;}
	.st178{clip-path:url(#SVGID_246_);enable-background:new    ;}
	.st179{clip-path:url(#SVGID_248_);enable-background:new    ;}
	.st180{clip-path:url(#SVGID_250_);enable-background:new    ;}
	.st181{clip-path:url(#SVGID_252_);enable-background:new    ;}
	.st182{clip-path:url(#SVGID_254_);enable-background:new    ;}
	.st183{clip-path:url(#SVGID_256_);enable-background:new    ;}
	.st184{clip-path:url(#SVGID_258_);enable-background:new    ;}
	.st185{clip-path:url(#SVGID_260_);enable-background:new    ;}
	.st186{clip-path:url(#SVGID_262_);enable-background:new    ;}
	.st187{clip-path:url(#SVGID_264_);enable-background:new    ;}
	.st188{clip-path:url(#SVGID_266_);enable-background:new    ;}
	.st189{clip-path:url(#SVGID_268_);enable-background:new    ;}
	.st190{clip-path:url(#SVGID_270_);enable-background:new    ;}
	.st191{clip-path:url(#SVGID_272_);enable-background:new    ;}
	.st192{clip-path:url(#SVGID_274_);enable-background:new    ;}
	.st193{clip-path:url(#SVGID_276_);enable-background:new    ;}
	.st194{clip-path:url(#SVGID_278_);enable-background:new    ;}
	.st195{opacity:0.3;fill:#11091C;}
	.st196{clip-path:url(#SVGID_280_);enable-background:new    ;}
	.st197{clip-path:url(#SVGID_282_);enable-background:new    ;}
	.st198{clip-path:url(#SVGID_284_);enable-background:new    ;}
	.st199{clip-path:url(#SVGID_286_);enable-background:new    ;}
	.st200{clip-path:url(#SVGID_288_);enable-background:new    ;}
	.st201{clip-path:url(#SVGID_290_);enable-background:new    ;}
	.st202{clip-path:url(#SVGID_292_);enable-background:new    ;}
	.st203{clip-path:url(#SVGID_294_);enable-background:new    ;}
	.st204{clip-path:url(#SVGID_296_);enable-background:new    ;}
	.st205{clip-path:url(#SVGID_298_);enable-background:new    ;}
	.st206{clip-path:url(#SVGID_300_);enable-background:new    ;}
	.st207{clip-path:url(#SVGID_302_);enable-background:new    ;}
	.st208{fill:url(#SVGID_303_);}
	.st209{fill:#11091C;}
	.st210{fill:#592B9E;}
	.st211{clip-path:url(#SVGID_305_);enable-background:new    ;}
	.st212{clip-path:url(#SVGID_307_);}
	.st213{clip-path:url(#SVGID_309_);enable-background:new    ;}
	.st214{clip-path:url(#SVGID_311_);}
	.st215{fill:url(#SVGID_312_);}
	.st216{fill:#140B23;}
	.st217{opacity:0.3;fill:#110A1C;}
	.st218{fill:url(#SVGID_313_);}
	.st219{fill:#FFA200;}
	.st220{clip-path:url(#SVGID_315_);enable-background:new    ;}
	.st221{clip-path:url(#SVGID_317_);enable-background:new    ;}
	.st222{clip-path:url(#SVGID_319_);enable-background:new    ;}
	.st223{clip-path:url(#SVGID_321_);enable-background:new    ;}
	.st224{clip-path:url(#SVGID_323_);enable-background:new    ;}
	.st225{clip-path:url(#SVGID_325_);enable-background:new    ;}
	.st226{clip-path:url(#SVGID_327_);enable-background:new    ;}
	.st227{clip-path:url(#SVGID_329_);enable-background:new    ;}
	.st228{clip-path:url(#SVGID_331_);enable-background:new    ;}
	.st229{clip-path:url(#SVGID_333_);enable-background:new    ;}
	.st230{clip-path:url(#SVGID_335_);enable-background:new    ;}
	.st231{clip-path:url(#SVGID_337_);enable-background:new    ;}
	.st232{clip-path:url(#SVGID_339_);enable-background:new    ;}
	.st233{clip-path:url(#SVGID_341_);enable-background:new    ;}
	.st234{clip-path:url(#SVGID_343_);enable-background:new    ;}
	.st235{clip-path:url(#SVGID_345_);enable-background:new    ;}
	.st236{clip-path:url(#SVGID_347_);enable-background:new    ;}
	.st237{clip-path:url(#SVGID_349_);enable-background:new    ;}
	.st238{clip-path:url(#SVGID_351_);enable-background:new    ;}
	.st239{clip-path:url(#SVGID_353_);enable-background:new    ;}
	.st240{clip-path:url(#SVGID_355_);enable-background:new    ;}
	.st241{clip-path:url(#SVGID_357_);enable-background:new    ;}
	.st242{clip-path:url(#SVGID_359_);enable-background:new    ;}
	.st243{clip-path:url(#SVGID_361_);enable-background:new    ;}
	.st244{clip-path:url(#SVGID_363_);enable-background:new    ;}
	.st245{clip-path:url(#SVGID_365_);enable-background:new    ;}
	.st246{clip-path:url(#SVGID_367_);enable-background:new    ;}
	.st247{clip-path:url(#SVGID_369_);enable-background:new    ;}
	.st248{clip-path:url(#SVGID_371_);enable-background:new    ;}
	.st249{clip-path:url(#SVGID_373_);enable-background:new    ;}
	.st250{clip-path:url(#SVGID_375_);enable-background:new    ;}
	.st251{clip-path:url(#SVGID_377_);enable-background:new    ;}
	.st252{clip-path:url(#SVGID_379_);enable-background:new    ;}
	.st253{clip-path:url(#SVGID_381_);enable-background:new    ;}
	.st254{clip-path:url(#SVGID_383_);enable-background:new    ;}
	.st255{clip-path:url(#SVGID_385_);enable-background:new    ;}
	.st256{clip-path:url(#SVGID_387_);enable-background:new    ;}
	.st257{clip-path:url(#SVGID_389_);enable-background:new    ;}
	.st258{clip-path:url(#SVGID_391_);enable-background:new    ;}
	.st259{clip-path:url(#SVGID_393_);enable-background:new    ;}
	.st260{opacity:0.3;fill:#120A1E;}
	.st261{clip-path:url(#SVGID_395_);enable-background:new    ;}
	.st262{clip-path:url(#SVGID_397_);enable-background:new    ;}
	.st263{clip-path:url(#SVGID_399_);enable-background:new    ;}
	.st264{clip-path:url(#SVGID_401_);enable-background:new    ;}
	.st265{clip-path:url(#SVGID_403_);enable-background:new    ;}
	.st266{clip-path:url(#SVGID_405_);enable-background:new    ;}
	.st267{clip-path:url(#SVGID_407_);enable-background:new    ;}
	.st268{clip-path:url(#SVGID_409_);enable-background:new    ;}
	.st269{clip-path:url(#SVGID_411_);enable-background:new    ;}
	.st270{clip-path:url(#SVGID_413_);enable-background:new    ;}
	.st271{clip-path:url(#SVGID_415_);enable-background:new    ;}
	.st272{clip-path:url(#SVGID_417_);enable-background:new    ;}
	.st273{clip-path:url(#SVGID_419_);enable-background:new    ;}
	.st274{clip-path:url(#SVGID_421_);enable-background:new    ;}
	.st275{clip-path:url(#SVGID_423_);enable-background:new    ;}
	.st276{clip-path:url(#SVGID_425_);enable-background:new    ;}
	.st277{clip-path:url(#SVGID_427_);enable-background:new    ;}
	.st278{clip-path:url(#SVGID_429_);enable-background:new    ;}
	.st279{clip-path:url(#SVGID_431_);enable-background:new    ;}
	.st280{clip-path:url(#SVGID_433_);enable-background:new    ;}
	.st281{clip-path:url(#SVGID_435_);enable-background:new    ;}
	.st282{clip-path:url(#SVGID_437_);enable-background:new    ;}
	.st283{clip-path:url(#SVGID_439_);enable-background:new    ;}
	.st284{clip-path:url(#SVGID_441_);enable-background:new    ;}
	.st285{fill:#120A1E;}
	.st286{opacity:0.3;fill:#140B21;}
	.st287{clip-path:url(#SVGID_443_);enable-background:new    ;}
	.st288{clip-path:url(#SVGID_445_);enable-background:new    ;}
	.st289{fill:#C9C9EC;}
	.st290{fill:#B7B7D7;}
	.st291{fill:#E1E1F5;}
	.st292{fill:#DF9B09;}
	.st293{opacity:0.3;fill:#0F0819;}
	.st294{clip-path:url(#SVGID_447_);}
	.st295{clip-path:url(#SVGID_449_);enable-background:new    ;}
	.st296{clip-path:url(#SVGID_451_);enable-background:new    ;}
	.st297{clip-path:url(#SVGID_453_);enable-background:new    ;}
	.st298{clip-path:url(#SVGID_455_);enable-background:new    ;}
	.st299{clip-path:url(#SVGID_457_);enable-background:new    ;}
	.st300{clip-path:url(#SVGID_459_);enable-background:new    ;}
	.st301{clip-path:url(#SVGID_461_);enable-background:new    ;}
	.st302{clip-path:url(#SVGID_463_);enable-background:new    ;}
	.st303{clip-path:url(#SVGID_465_);enable-background:new    ;}
	.st304{clip-path:url(#SVGID_467_);enable-background:new    ;}
	.st305{clip-path:url(#SVGID_469_);enable-background:new    ;}
	.st306{clip-path:url(#SVGID_471_);enable-background:new    ;}
	.st307{clip-path:url(#SVGID_473_);enable-background:new    ;}
	.st308{clip-path:url(#SVGID_475_);enable-background:new    ;}
	.st309{clip-path:url(#SVGID_477_);enable-background:new    ;}
	.st310{clip-path:url(#SVGID_479_);enable-background:new    ;}
	.st311{clip-path:url(#SVGID_481_);enable-background:new    ;}
	.st312{clip-path:url(#SVGID_483_);enable-background:new    ;}
	.st313{fill:#FFE561;}
	.st314{fill:url(#SVGID_484_);}
</style>
<rect y="0" class="st0" width="500" height="500"/>
<g>
	<path class="st38" d="M190.6,346.1l143.7-83c2.8-1.6,2.8-5.7,0-7.4l-142.5-82.3l-11.5,172.7H190.6z"/>
	<g>
		<g>
			<g>
				<g class="st2">
					<g class="st2">
						<defs>
							<path id="SVGID_304_" class="st2" d="M328.3,255.2l0,5.1c0,0.6-0.4,1.1-1.1,1.5l0-5.1C327.9,256.3,328.3,255.7,328.3,255.2z"
								/>
						</defs>
						<use xlink:href="#SVGID_304_"  style="overflow:visible;fill:#E5E3E8;"/>
						<clipPath id="SVGID_1_">
							<use xlink:href="#SVGID_304_"  style="overflow:visible;"/>
						</clipPath>
						<g style="clip-path:url(#SVGID_1_);enable-background:new    ;">
							<path class="st3" d="M328.3,255.2l0,5.1c0,0.6-0.4,1.1-1.1,1.5l0-5.1C327.9,256.3,328.3,255.7,328.3,255.2L328.3,255.2z"/>
						</g>
					</g>
					<path class="st3" d="M84.7,290.8l0-5.1c0,0.6,0.4,1.1,1.1,1.6l0,5.1C85.1,291.9,84.7,291.4,84.7,290.8z"/>
					<g>
						<polygon class="st3" points="327.2,256.7 327.2,261.8 183.2,345.5 183.2,340.4 						"/>
					</g>
					<path class="st4" d="M85.8,287.3c-0.7-0.4-1.1-1-1.1-1.6l0,5.1c0,0.6,0.4,1.1,1.1,1.6l92,53.1l0-5.1L85.8,287.3z"/>
					<g class="st2">
						<defs>
							<path id="SVGID_306_" class="st2" d="M183.2,340.4l0,5.1c-1.5,0.9-3.9,0.9-5.4,0l0-5.1C179.3,341.3,181.7,341.3,183.2,340.4z
								"/>
						</defs>
						<use xlink:href="#SVGID_306_"  style="overflow:visible;fill:#E5E3E8;"/>
						<clipPath id="SVGID_3_">
							<use xlink:href="#SVGID_306_"  style="overflow:visible;"/>
						</clipPath>
						<g class="st31">
							<path class="st5" d="M183.2,340.4l0,5.1c-1.5,0.9-3.9,0.9-5.4,0l0-5.1C179.3,341.3,181.7,341.3,183.2,340.4L183.2,340.4z"/>
						</g>
					</g>
					<g>
						<path class="st22" d="M327.2,253.6c1.5,0.9,1.5,2.2,0,3.1l-144,83.7c-1.5,0.9-3.9,0.9-5.4,0l-92-53.1c-1.5-0.9-1.5-2.2,0-3.1
							l144-83.7c1.5-0.9,3.9-0.9,5.4,0L327.2,253.6z"/>
					</g>
				</g>
			</g>
			<g>
				<g>
					<g>
						<g class="st2">
							<g>
								<polygon class="st41" points="237.8,213.1 237.8,214 229.8,218.7 229.8,217.8 								"/>
							</g>
							<g>
								<polygon class="st41" points="229.8,217.8 229.8,218.7 221.8,214 221.8,213.1 								"/>
							</g>
						</g>
						<g class="st2">
							<g>
								<polygon class="st41" points="227.8,219 227.8,219.8 219.8,224.5 219.8,223.6 								"/>
							</g>
							<g>
								<polygon class="st41" points="219.8,223.6 219.8,224.5 211.7,219.8 211.7,219 								"/>
							</g>
						</g>
						<g class="st2">
							<g>
								<polygon class="st41" points="217.7,224.8 217.7,225.7 209.7,230.3 209.7,229.5 								"/>
							</g>
							<g>
								<polygon class="st41" points="209.7,229.5 209.7,230.3 201.7,225.7 201.7,224.8 								"/>
							</g>
						</g>
						<g class="st2">
							<g>
								<polygon class="st41" points="207.7,230.6 207.7,231.5 199.7,236.2 199.7,235.3 								"/>
							</g>
							<g>
								<polygon class="st41" points="199.7,235.3 199.7,236.2 191.6,231.5 191.6,230.6 								"/>
							</g>
						</g>
						<g class="st2">
							<g>
								<polygon class="st41" points="197.6,236.5 197.6,237.4 189.6,242 189.6,241.1 								"/>
							</g>
							<g>
								<polygon class="st41" points="189.6,241.1 189.6,242 181.5,237.4 181.6,236.5 								"/>
							</g>
						</g>
						<g class="st2">
							<g>
								<polygon class="st41" points="187.6,242.3 187.5,243.2 179.5,247.9 179.5,247 								"/>
							</g>
							<g>
								<polygon class="st41" points="179.5,247 179.5,247.9 171.5,243.2 171.5,242.3 								"/>
							</g>
						</g>
						<g class="st2">
							<g>
								<polygon class="st41" points="177.5,248.2 177.5,249.1 169.5,253.7 169.5,252.8 								"/>
							</g>
							<g>
								<polygon class="st41" points="169.5,252.8 169.5,253.7 161.4,249.1 161.4,248.2 								"/>
							</g>
						</g>
						<g class="st2">
							<g>
								<polygon class="st41" points="167.4,254 167.4,254.9 159.4,259.6 159.4,258.7 								"/>
							</g>
							<g>
								<polygon class="st41" points="159.4,258.7 159.4,259.6 151.4,254.9 151.4,254 								"/>
							</g>
						</g>
						<g class="st2">
							<g>
								<polygon class="st41" points="157.4,259.9 157.4,260.7 149.4,265.4 149.4,264.5 								"/>
							</g>
							<g>
								<polygon class="st41" points="149.4,264.5 149.4,265.4 141.3,260.7 141.3,259.9 								"/>
							</g>
						</g>
						<g class="st2">
							<g>
								<polygon class="st41" points="147.3,265.7 147.3,266.6 139.3,271.2 139.3,270.4 								"/>
							</g>
							<g>
								<polygon class="st41" points="139.3,270.4 139.3,271.2 131.3,266.6 131.3,265.7 								"/>
							</g>
						</g>
						<g class="st2">
							<g>
								<polygon class="st41" points="137.3,271.5 137.3,272.4 129.3,277.1 129.3,276.2 								"/>
							</g>
							<g>
								<polygon class="st41" points="129.3,276.2 129.3,277.1 121.2,272.4 121.2,271.5 								"/>
							</g>
						</g>
						<g class="st2">
							<g>
								<polygon class="st41" points="127.2,277.4 127.2,278.3 119.2,282.9 119.2,282 								"/>
							</g>
							<g>
								<polygon class="st41" points="119.2,282 119.2,282.9 111.2,278.3 111.2,277.4 								"/>
							</g>
						</g>
						<g class="st2">
							<g>
								<polygon class="st41" points="117.2,283.2 117.2,284.1 109.2,288.8 109.2,287.9 								"/>
							</g>
							<g>
								<polygon class="st41" points="109.2,287.9 109.2,288.8 101.1,284.1 101.1,283.2 								"/>
							</g>
						</g>
						<g class="st2">
							<g>
								<polygon class="st41" points="247.4,219.2 247.4,220.1 231.1,229.5 231.1,228.7 								"/>
							</g>
							<g>
								<polygon class="st41" points="231.1,228.7 231.1,229.5 223.1,224.9 223.1,224 								"/>
							</g>
						</g>
						<g class="st2">
							<g>
								<polygon class="st41" points="229.3,229.7 229.3,230.6 221.3,235.3 221.3,234.4 								"/>
							</g>
							<g>
								<polygon class="st41" points="221.3,234.4 221.3,235.3 213.3,230.6 213.3,229.7 								"/>
							</g>
						</g>
						<g class="st2">
							<g>
								<polygon class="st41" points="219.7,235.3 219.7,236.2 211.7,240.8 211.7,239.9 								"/>
							</g>
							<g>
								<polygon class="st41" points="211.7,239.9 211.7,240.8 203.7,236.2 203.7,235.3 								"/>
							</g>
						</g>
						<g class="st2">
							<g>
								<polygon class="st41" points="210.1,240.9 210.1,241.7 202.1,246.4 202.1,245.5 								"/>
							</g>
							<g>
								<polygon class="st41" points="202.1,245.5 202.1,246.4 194.1,241.7 194.1,240.9 								"/>
							</g>
						</g>
						<g class="st2">
							<g>
								<polygon class="st41" points="200.6,246.4 200.5,247.3 192.5,252 192.6,251.1 								"/>
							</g>
							<g>
								<polygon class="st41" points="192.6,251.1 192.5,252 184.5,247.3 184.5,246.4 								"/>
							</g>
						</g>
						<g class="st2">
							<g>
								<polygon class="st41" points="191,252 191,252.9 183,257.5 183,256.7 								"/>
							</g>
							<g>
								<polygon class="st41" points="183,256.7 183,257.5 174.9,252.9 174.9,252 								"/>
							</g>
						</g>
						<g class="st2">
							<g>
								<polygon class="st41" points="181.4,257.6 181.4,258.5 173.4,263.1 173.4,262.2 								"/>
							</g>
							<g>
								<polygon class="st41" points="173.4,262.2 173.4,263.1 165.3,258.5 165.3,257.6 								"/>
							</g>
						</g>
						<g class="st2">
							<g>
								<polygon class="st41" points="171.8,263.2 171.8,264 163.8,268.7 163.8,267.8 								"/>
							</g>
							<g>
								<polygon class="st41" points="163.8,267.8 163.8,268.7 155.7,264 155.7,263.2 								"/>
							</g>
						</g>
						<g class="st2">
							<g>
								<polygon class="st41" points="162.2,268.7 162.2,269.6 154.2,274.3 154.2,273.4 								"/>
							</g>
							<g>
								<polygon class="st41" points="154.2,273.4 154.2,274.3 146.1,269.6 146.1,268.7 								"/>
							</g>
						</g>
						<g class="st2">
							<g>
								<polygon class="st41" points="152.6,274.3 152.6,275.2 144.6,279.8 144.6,279 								"/>
							</g>
							<g>
								<polygon class="st41" points="144.6,279 144.6,279.8 136.5,275.2 136.5,274.3 								"/>
							</g>
						</g>
						<g class="st2">
							<g>
								<polygon class="st41" points="143,279.9 143,280.8 135,285.4 135,284.5 								"/>
							</g>
							<g>
								<polygon class="st41" points="135,284.5 135,285.4 126.9,280.8 126.9,279.9 								"/>
							</g>
						</g>
						<g class="st2">
							<g>
								<polygon class="st41" points="133.3,285.5 133.3,286.4 119.2,294.6 119.2,293.7 								"/>
							</g>
							<g>
								<polygon class="st41" points="119.2,293.7 119.2,294.6 111.1,290 111.1,289.1 								"/>
							</g>
						</g>
						<g class="st2">
							<g>
								<polygon class="st41" points="257.5,225 257.5,225.9 237.2,237.7 237.2,236.8 								"/>
							</g>
							<g>
								<polygon class="st41" points="237.2,236.8 237.2,237.7 229.2,233 229.2,232.1 								"/>
							</g>
						</g>
						<g class="st2">
							<g>
								<polygon class="st41" points="235.4,237.8 235.4,238.7 227.4,243.4 227.4,242.5 								"/>
							</g>
							<g>
								<polygon class="st41" points="227.4,242.5 227.4,243.4 219.3,238.7 219.3,237.8 								"/>
							</g>
						</g>
						<g class="st2">
							<g>
								<polygon class="st41" points="225.9,243.3 225.9,244.2 217.9,248.9 217.9,248 								"/>
							</g>
							<g>
								<polygon class="st41" points="217.9,248 217.9,248.9 209.9,244.2 209.9,243.3 								"/>
							</g>
						</g>
						<g class="st2">
							<g>
								<polygon class="st41" points="216.5,248.8 216.5,249.7 208.5,254.4 208.5,253.5 								"/>
							</g>
							<g>
								<polygon class="st41" points="208.5,253.5 208.5,254.4 200.4,249.7 200.4,248.8 								"/>
							</g>
						</g>
						<g class="st2">
							<g>
								<polygon class="st41" points="207,254.3 207,255.2 199,259.9 199,259 								"/>
							</g>
							<g>
								<polygon class="st41" points="199,259 199,259.9 191,255.2 191,254.3 								"/>
							</g>
						</g>
						<g class="st2">
							<g>
								<polygon class="st41" points="197.6,259.8 197.6,260.7 189.6,265.4 189.6,264.5 								"/>
							</g>
							<g>
								<polygon class="st41" points="189.6,264.5 189.6,265.4 181.5,260.7 181.5,259.8 								"/>
							</g>
						</g>
						<g class="st2">
							<g>
								<polygon class="st41" points="188.1,265.3 188.1,266.2 180.1,270.9 180.1,270 								"/>
							</g>
							<g>
								<polygon class="st41" points="180.1,270 180.1,270.9 172.1,266.2 172.1,265.3 								"/>
							</g>
						</g>
						<g class="st2">
							<g>
								<polygon class="st41" points="178.7,270.8 178.7,271.7 170.7,276.3 170.7,275.5 								"/>
							</g>
							<g>
								<polygon class="st41" points="170.7,275.5 170.7,276.3 162.6,271.7 162.6,270.8 								"/>
							</g>
						</g>
						<g class="st2">
							<g>
								<polygon class="st41" points="169.2,276.3 169.2,277.2 161.2,281.8 161.2,281 								"/>
							</g>
							<g>
								<polygon class="st41" points="161.2,281 161.2,281.8 153.2,277.2 153.2,276.3 								"/>
							</g>
						</g>
						<g class="st2">
							<g>
								<polygon class="st41" points="159.8,281.8 159.8,282.7 151.8,287.3 151.8,286.4 								"/>
							</g>
							<g>
								<polygon class="st41" points="151.8,286.4 151.8,287.3 143.7,282.7 143.7,281.8 								"/>
							</g>
						</g>
						<g class="st2">
							<g>
								<polygon class="st41" points="149.7,287.7 149.7,288.6 129.3,300.4 129.3,299.5 								"/>
							</g>
							<g>
								<polygon class="st41" points="129.3,299.5 129.3,300.4 121.2,295.8 121.2,294.9 								"/>
							</g>
						</g>
						<g class="st2">
							<g>
								<polygon class="st41" points="257.3,236.6 257.3,237.5 252.7,240.2 252.7,239.3 								"/>
							</g>
							<g>
								<polygon class="st41" points="252.7,239.3 252.7,240.2 244.8,235.6 244.8,234.7 								"/>
							</g>
							<g>
								<polygon class="st41" points="267.5,242.5 267.5,243.4 257.3,237.5 257.3,236.6 								"/>
							</g>
							<g>
								<polygon class="st41" points="277.6,236.6 277.6,237.5 267.5,243.4 267.5,242.5 								"/>
							</g>
							<g>
								<polygon class="st41" points="243,245.1 243,246 234.9,241.3 234.9,240.4 								"/>
							</g>
							<g>
								<polygon class="st41" points="251,240.4 251,241.3 243,246 243,245.1 								"/>
							</g>
							<g>
								<polygon class="st41" points="257.5,248.3 257.5,249.2 249.4,244.6 249.4,243.7 								"/>
							</g>
							<g>
								<polygon class="st41" points="265.5,243.7 265.5,244.6 257.5,249.2 257.5,248.3 								"/>
							</g>
						</g>
						<g class="st2">
							<g>
								<polygon class="st41" points="288.1,242.6 288,243.5 267.8,255.3 267.8,254.4 								"/>
							</g>
							<g>
								<polygon class="st41" points="267.8,254.4 267.8,255.3 259.7,250.7 259.7,249.8 								"/>
							</g>
						</g>
						<g class="st2">
							<g>
								<polygon class="st41" points="241.4,246 241.4,246.9 233.4,251.5 233.4,250.6 								"/>
							</g>
							<g>
								<polygon class="st41" points="233.4,250.6 233.4,251.5 225.4,246.9 225.4,246 								"/>
							</g>
						</g>
						<g class="st2">
							<g>
								<polygon class="st41" points="231.9,251.5 231.9,252.4 223.9,257.1 223.9,256.2 								"/>
							</g>
							<g>
								<polygon class="st41" points="223.9,256.2 223.9,257.1 215.8,252.4 215.8,251.5 								"/>
							</g>
						</g>
						<g class="st2">
							<g>
								<polygon class="st41" points="222.4,257.1 222.4,258 214.4,262.6 214.4,261.7 								"/>
							</g>
							<g>
								<polygon class="st41" points="214.4,261.7 214.4,262.6 206.3,258 206.3,257.1 								"/>
							</g>
						</g>
						<g class="st2">
							<g>
								<polygon class="st41" points="212.8,262.6 212.8,263.5 204.8,268.2 204.8,267.3 								"/>
							</g>
							<g>
								<polygon class="st41" points="204.8,267.3 204.8,268.2 196.8,263.5 196.8,262.6 								"/>
							</g>
						</g>
						<g class="st2">
							<g>
								<polygon class="st41" points="203.3,268.2 203.3,269.1 195.3,273.7 195.3,272.8 								"/>
							</g>
							<g>
								<polygon class="st41" points="195.3,272.8 195.3,273.7 187.2,269.1 187.2,268.2 								"/>
							</g>
						</g>
						<g class="st2">
							<g>
								<polygon class="st41" points="193.7,273.7 193.7,274.6 185.7,279.3 185.7,278.4 								"/>
							</g>
							<g>
								<polygon class="st41" points="185.7,278.4 185.7,279.3 177.7,274.6 177.7,273.7 								"/>
							</g>
						</g>
						<g class="st2">
							<g>
								<polygon class="st41" points="184.2,279.3 184.2,280.2 176.2,284.8 176.2,283.9 								"/>
							</g>
							<g>
								<polygon class="st41" points="176.2,283.9 176.2,284.8 168.1,280.1 168.1,279.3 								"/>
							</g>
						</g>
						<g class="st2">
							<g>
								<polygon class="st41" points="174.6,284.8 174.6,285.7 166.6,290.4 166.6,289.5 								"/>
							</g>
							<g>
								<polygon class="st41" points="166.6,289.5 166.6,290.4 158.6,285.7 158.6,284.8 								"/>
							</g>
						</g>
						<g class="st2">
							<g>
								<polygon class="st41" points="165.1,290.4 165.1,291.2 157.1,295.9 157.1,295 								"/>
							</g>
							<g>
								<polygon class="st41" points="157.1,295 157.1,295.9 149,291.2 149,290.4 								"/>
							</g>
						</g>
						<g class="st2">
							<g>
								<polygon class="st41" points="155.1,296.1 155.1,297 139.3,306.2 139.3,305.3 								"/>
							</g>
							<g>
								<polygon class="st41" points="139.3,305.3 139.3,306.2 131.3,301.6 131.3,300.7 								"/>
							</g>
						</g>
						<g class="st2">
							<g>
								<polygon class="st41" points="255.9,249.2 255.9,250.1 247.9,254.8 247.9,253.9 								"/>
							</g>
							<g>
								<polygon class="st41" points="247.9,253.9 247.9,254.8 239.9,250.1 239.9,249.2 								"/>
							</g>
						</g>
						<g class="st2">
							<g>
								<polygon class="st41" points="246.4,254.8 246.4,255.7 238.4,260.3 238.4,259.4 								"/>
							</g>
							<g>
								<polygon class="st41" points="238.4,259.4 238.4,260.3 230.3,255.7 230.3,254.8 								"/>
							</g>
						</g>
						<g class="st2">
							<g>
								<polygon class="st41" points="236.8,260.3 236.8,261.2 228.8,265.9 228.8,265 								"/>
							</g>
							<g>
								<polygon class="st41" points="228.8,265 228.8,265.9 220.8,261.2 220.8,260.3 								"/>
							</g>
						</g>
						<g class="st2">
							<g>
								<polygon class="st41" points="227.3,265.9 227.3,266.8 219.3,271.4 219.3,270.5 								"/>
							</g>
							<g>
								<polygon class="st41" points="219.3,270.5 219.3,271.4 211.2,266.8 211.2,265.9 								"/>
							</g>
						</g>
						<g class="st2">
							<g>
								<polygon class="st41" points="217.8,271.4 217.8,272.3 209.7,277 209.8,276.1 								"/>
							</g>
							<g>
								<polygon class="st41" points="209.8,276.1 209.7,277 201.7,272.3 201.7,271.4 								"/>
							</g>
						</g>
						<g class="st2">
							<g>
								<polygon class="st41" points="208.2,277 208.2,277.8 200.2,282.5 200.2,281.6 								"/>
							</g>
							<g>
								<polygon class="st41" points="200.2,281.6 200.2,282.5 192.1,277.8 192.1,277 								"/>
							</g>
						</g>
						<g class="st2">
							<g>
								<polygon class="st41" points="198.7,282.5 198.7,283.4 190.7,288 190.7,287.2 								"/>
							</g>
							<g>
								<polygon class="st41" points="190.7,287.2 190.7,288 182.6,283.4 182.6,282.5 								"/>
							</g>
						</g>
						<g class="st2">
							<g>
								<polygon class="st41" points="189.1,288.1 189.1,288.9 181.1,293.6 181.1,292.7 								"/>
							</g>
							<g>
								<polygon class="st41" points="181.1,292.7 181.1,293.6 173.1,288.9 173.1,288 								"/>
							</g>
						</g>
						<g class="st2">
							<g>
								<polygon class="st41" points="179.6,293.6 179.6,294.5 171.6,299.1 171.6,298.2 								"/>
							</g>
							<g>
								<polygon class="st41" points="171.6,298.2 171.6,299.1 163.5,294.5 163.5,293.6 								"/>
							</g>
						</g>
						<g class="st2">
							<g>
								<polygon class="st41" points="169.8,299.3 169.8,300.2 149.4,312 149.4,311.1 								"/>
							</g>
							<g>
								<polygon class="st41" points="149.4,311.1 149.4,312 141.3,307.4 141.3,306.5 								"/>
							</g>
						</g>
						<g class="st2">
							<g>
								<polygon class="st41" points="265.9,255.5 265.9,256.4 257.9,261 257.9,260.1 								"/>
							</g>
							<g>
								<polygon class="st41" points="257.9,260.1 257.9,261 249.9,256.4 249.9,255.5 								"/>
							</g>
						</g>
						<g class="st2">
							<g>
								<polygon class="st41" points="256.5,261 256.5,261.9 248.5,266.5 248.5,265.6 								"/>
							</g>
							<g>
								<polygon class="st41" points="248.5,265.6 248.5,266.5 240.4,261.9 240.4,261 								"/>
							</g>
						</g>
						<g class="st2">
							<g>
								<polygon class="st41" points="247,266.5 247,267.4 239,272 239,271.1 								"/>
							</g>
							<g>
								<polygon class="st41" points="239,271.1 239,272 230.9,267.4 230.9,266.5 								"/>
							</g>
						</g>
						<g class="st2">
							<g>
								<polygon class="st41" points="237.5,272 237.5,272.9 229.5,277.5 229.5,276.7 								"/>
							</g>
							<g>
								<polygon class="st41" points="229.5,276.7 229.5,277.5 221.5,272.9 221.5,272 								"/>
							</g>
						</g>
						<g class="st2">
							<g>
								<polygon class="st41" points="228.1,277.5 228.1,278.4 191.8,299.5 191.8,298.6 								"/>
							</g>
							<g>
								<polygon class="st41" points="191.8,298.6 191.8,299.5 183.7,294.8 183.7,293.9 								"/>
							</g>
						</g>
						<g class="st2">
							<g>
								<polygon class="st41" points="189.9,299.7 189.9,300.6 181.9,305.2 181.9,304.3 								"/>
							</g>
							<g>
								<polygon class="st41" points="181.9,304.3 181.9,305.2 173.8,300.6 173.8,299.7 								"/>
							</g>
						</g>
						<g class="st2">
							<g>
								<polygon class="st41" points="180.2,305.3 180.2,306.2 159.8,318.1 159.8,317.2 								"/>
							</g>
							<g>
								<polygon class="st41" points="159.8,317.2 159.8,318.1 151.7,313.4 151.7,312.5 								"/>
							</g>
						</g>
					</g>
				</g>
				<g>
					<g>
						<polygon class="st9" points="237.8,213.1 229.8,217.8 221.8,213.1 229.8,208.5 						"/>
					</g>
				</g>
				<g>
					<g>
						<polygon class="st9" points="227.8,219 219.8,223.6 211.7,219 219.7,214.3 						"/>
					</g>
				</g>
				<g>
					<g>
						<polygon class="st9" points="217.7,224.8 209.7,229.5 201.7,224.8 209.7,220.1 						"/>
					</g>
				</g>
				<g>
					<g>
						<polygon class="st9" points="207.7,230.6 199.7,235.3 191.6,230.6 199.6,226 						"/>
					</g>
				</g>
				<g>
					<g>
						<polygon class="st9" points="197.6,236.5 189.6,241.1 181.6,236.5 189.6,231.8 						"/>
					</g>
				</g>
				<g>
					<g>
						<polygon class="st9" points="187.6,242.3 179.5,247 171.5,242.3 179.5,237.7 						"/>
					</g>
				</g>
				<g>
					<g>
						<polygon class="st9" points="177.5,248.2 169.5,252.8 161.4,248.2 169.4,243.5 						"/>
					</g>
				</g>
				<g>
					<g>
						<polygon class="st9" points="167.4,254 159.4,258.7 151.4,254 159.4,249.4 						"/>
					</g>
				</g>
				<g>
					<g>
						<polygon class="st9" points="157.4,259.9 149.4,264.5 141.3,259.9 149.3,255.2 						"/>
					</g>
				</g>
				<g>
					<g>
						<polygon class="st9" points="147.3,265.7 139.3,270.4 131.3,265.7 139.3,261.1 						"/>
					</g>
				</g>
				<g>
					<g>
						<polygon class="st9" points="137.3,271.5 129.3,276.2 121.2,271.5 129.2,266.9 						"/>
					</g>
				</g>
				<g>
					<g>
						<polygon class="st9" points="127.2,277.4 119.2,282 111.2,277.4 119.2,272.7 						"/>
					</g>
				</g>
				<g>
					<g>
						<polygon class="st9" points="117.2,283.2 109.2,287.9 101.1,283.2 109.1,278.6 						"/>
					</g>
				</g>
				<g>
					<g>
						<polygon class="st9" points="247.4,219.2 231.1,228.7 223.1,224 239.4,214.5 						"/>
					</g>
				</g>
				<g>
					<g>
						<polygon class="st9" points="229.3,229.7 221.3,234.4 213.3,229.7 221.3,225.1 						"/>
					</g>
				</g>
				<g>
					<g>
						<polygon class="st9" points="219.7,235.3 211.7,239.9 203.7,235.3 211.7,230.6 						"/>
					</g>
				</g>
				<g>
					<g>
						<polygon class="st9" points="210.1,240.9 202.1,245.5 194.1,240.9 202.1,236.2 						"/>
					</g>
				</g>
				<g>
					<g>
						<polygon class="st9" points="200.6,246.4 192.6,251.1 184.5,246.4 192.5,241.8 						"/>
					</g>
				</g>
				<g>
					<g>
						<polygon class="st9" points="191,252 183,256.7 174.9,252 182.9,247.4 						"/>
					</g>
				</g>
				<g>
					<g>
						<polygon class="st9" points="181.4,257.6 173.4,262.2 165.3,257.6 173.3,252.9 						"/>
					</g>
				</g>
				<g>
					<g>
						<polygon class="st9" points="171.8,263.2 163.8,267.8 155.7,263.2 163.7,258.5 						"/>
					</g>
				</g>
				<g>
					<g>
						<polygon class="st9" points="162.2,268.7 154.2,273.4 146.1,268.7 154.1,264.1 						"/>
					</g>
				</g>
				<g>
					<g>
						<polygon class="st9" points="152.6,274.3 144.6,279 136.5,274.3 144.5,269.6 						"/>
					</g>
				</g>
				<g>
					<g>
						<polygon class="st9" points="143,279.9 135,284.5 126.9,279.9 135,275.2 						"/>
					</g>
				</g>
				<g>
					<g>
						<polygon class="st9" points="133.3,285.5 119.2,293.7 111.1,289.1 125.3,280.9 						"/>
					</g>
				</g>
				<g>
					<g>
						<polygon class="st9" points="257.5,225 237.2,236.8 229.2,232.1 249.4,220.3 						"/>
					</g>
				</g>
				<g>
					<g>
						<polygon class="st9" points="235.4,237.8 227.4,242.5 219.3,237.8 227.3,233.2 						"/>
					</g>
				</g>
				<g>
					<g>
						<polygon class="st9" points="225.9,243.3 217.9,248 209.9,243.3 217.9,238.7 						"/>
					</g>
				</g>
				<g>
					<g>
						<polygon class="st9" points="216.5,248.8 208.5,253.5 200.4,248.8 208.4,244.2 						"/>
					</g>
				</g>
				<g>
					<g>
						<polygon class="st9" points="207,254.3 199,259 191,254.3 199,249.7 						"/>
					</g>
				</g>
				<g>
					<g>
						<polygon class="st9" points="197.6,259.8 189.6,264.5 181.5,259.8 189.5,255.2 						"/>
					</g>
				</g>
				<g>
					<g>
						<polygon class="st9" points="188.1,265.3 180.1,270 172.1,265.3 180.1,260.7 						"/>
					</g>
				</g>
				<g>
					<g>
						<polygon class="st9" points="178.7,270.8 170.7,275.5 162.6,270.8 170.6,266.2 						"/>
					</g>
				</g>
				<g>
					<g>
						<polygon class="st9" points="169.2,276.3 161.2,281 153.2,276.3 161.2,271.6 						"/>
					</g>
				</g>
				<g>
					<g>
						<polygon class="st9" points="159.8,281.8 151.8,286.4 143.7,281.8 151.7,277.1 						"/>
					</g>
				</g>
				<g>
					<g>
						<polygon class="st9" points="149.7,287.7 129.3,299.5 121.2,294.9 141.6,283 						"/>
					</g>
				</g>
				<g>
					<g>
						<polygon class="st9" points="277.6,236.6 267.5,242.5 257.3,236.6 252.7,239.3 244.8,234.7 259.5,226.2 						"/>
					</g>
				</g>
				<g>
					<g>
						<polygon class="st9" points="251,240.4 243,245.1 234.9,240.4 242.9,235.8 						"/>
					</g>
				</g>
				<g>
					<g>
						<polygon class="st9" points="265.5,243.7 257.5,248.3 249.4,243.7 257.4,239 						"/>
					</g>
				</g>
				<g>
					<g>
						<polygon class="st9" points="288.1,242.6 267.8,254.4 259.7,249.8 280,238 						"/>
					</g>
				</g>
				<g>
					<g>
						<polygon class="st9" points="241.4,246 233.4,250.6 225.4,246 233.4,241.3 						"/>
					</g>
				</g>
				<g>
					<g>
						<polygon class="st9" points="231.9,251.5 223.9,256.2 215.8,251.5 223.8,246.9 						"/>
					</g>
				</g>
				<g>
					<g>
						<polygon class="st9" points="222.4,257.1 214.4,261.7 206.3,257.1 214.3,252.4 						"/>
					</g>
				</g>
				<g>
					<g>
						<polygon class="st9" points="212.8,262.6 204.8,267.3 196.8,262.6 204.8,258 						"/>
					</g>
				</g>
				<g>
					<g>
						<polygon class="st9" points="203.3,268.2 195.3,272.8 187.2,268.2 195.2,263.5 						"/>
					</g>
				</g>
				<g>
					<g>
						<polygon class="st9" points="193.7,273.7 185.7,278.4 177.7,273.7 185.7,269.1 						"/>
					</g>
				</g>
				<g>
					<g>
						<polygon class="st9" points="184.2,279.3 176.2,283.9 168.1,279.3 176.1,274.6 						"/>
					</g>
				</g>
				<g>
					<g>
						<polygon class="st9" points="174.6,284.8 166.6,289.5 158.6,284.8 166.6,280.2 						"/>
					</g>
				</g>
				<g>
					<g>
						<polygon class="st9" points="165.1,290.4 157.1,295 149,290.4 157,285.7 						"/>
					</g>
				</g>
				<g>
					<g>
						<polygon class="st9" points="155.1,296.1 139.3,305.3 131.3,300.7 147.1,291.5 						"/>
					</g>
				</g>
				<g>
					<g>
						<polygon class="st9" points="255.9,249.2 247.9,253.9 239.9,249.2 247.9,244.6 						"/>
					</g>
				</g>
				<g>
					<g>
						<polygon class="st9" points="246.4,254.8 238.4,259.4 230.3,254.8 238.3,250.1 						"/>
					</g>
				</g>
				<g>
					<g>
						<polygon class="st9" points="236.8,260.3 228.8,265 220.8,260.3 228.8,255.7 						"/>
					</g>
				</g>
				<g>
					<g>
						<polygon class="st9" points="227.3,265.9 219.3,270.5 211.2,265.9 219.2,261.2 						"/>
					</g>
				</g>
				<g>
					<g>
						<polygon class="st9" points="217.8,271.4 209.8,276.1 201.7,271.4 209.7,266.8 						"/>
					</g>
				</g>
				<g>
					<g>
						<polygon class="st9" points="208.2,277 200.2,281.6 192.1,277 200.2,272.3 						"/>
					</g>
				</g>
				<g>
					<g>
						<polygon class="st9" points="198.7,282.5 190.7,287.2 182.6,282.5 190.6,277.9 						"/>
					</g>
				</g>
				<g>
					<g>
						<polygon class="st9" points="189.1,288.1 181.1,292.7 173.1,288 181.1,283.4 						"/>
					</g>
				</g>
				<g>
					<g>
						<polygon class="st9" points="179.6,293.6 171.6,298.2 163.5,293.6 171.5,288.9 						"/>
					</g>
				</g>
				<g>
					<g>
						<polygon class="st9" points="169.8,299.3 149.4,311.1 141.3,306.5 161.7,294.6 						"/>
					</g>
				</g>
				<g>
					<g>
						<polygon class="st9" points="265.9,255.5 257.9,260.1 249.9,255.5 257.9,250.8 						"/>
					</g>
				</g>
				<g>
					<g>
						<polygon class="st9" points="256.5,261 248.5,265.6 240.4,261 248.4,256.3 						"/>
					</g>
				</g>
				<g>
					<g>
						<polygon class="st9" points="247,266.5 239,271.1 230.9,266.5 238.9,261.8 						"/>
					</g>
				</g>
				<g>
					<g>
						<polygon class="st9" points="237.5,272 229.5,276.7 221.5,272 229.5,267.3 						"/>
					</g>
				</g>
				<g>
					<g>
						<polygon class="st9" points="228.1,277.5 191.8,298.6 183.7,293.9 220,272.8 						"/>
					</g>
				</g>
				<g>
					<g>
						<polygon class="st9" points="189.9,299.7 181.9,304.3 173.8,299.7 181.8,295 						"/>
					</g>
				</g>
				<g>
					<g>
						<polygon class="st9" points="180.2,305.3 159.8,317.2 151.7,312.5 172.1,300.7 						"/>
					</g>
				</g>
			</g>
			<g>
				<path class="st3" d="M266.2,287.1c-0.2,0.3-0.5,0.6-0.9,0.8l-33.3,19.2c-1.6,1-4.3,1-6,0l-15.5-9c-0.4-0.2-0.7-0.5-0.9-0.8
					c-0.6-0.9-0.3-1.9,0.9-2.6l33.3-19.2c1.6-0.9,4.3-0.9,6,0l15.5,9C266.5,285.2,266.8,286.3,266.2,287.1z"/>
				<path class="st4" d="M266.2,287.1c-0.2,0.3-0.5,0.6-0.9,0.8l-33.3,19.2c-1.6,1-4.3,1-6,0l-15.5-9c-0.4-0.2-0.7-0.5-0.9-0.8
					c0.2-0.3,0.5-0.6,0.9-0.8l33.3-19.2c1.6-1,4.3-1,6,0l15.5,9C265.7,286.5,266,286.8,266.2,287.1z"/>
			</g>
		</g>
		<g>
			<g class="st2">
				<g>
					<defs>
						<path id="SVGID_308_" d="M199.1,82.8l4.1,0.7c-0.5-0.1-1,0-1.5,0.3l-4.1-0.7C198.1,82.8,198.6,82.8,199.1,82.8z"/>
					</defs>
					<use xlink:href="#SVGID_308_"  style="overflow:visible;fill:#E5E3E8;"/>
					<clipPath id="SVGID_5_">
						<use xlink:href="#SVGID_308_"  style="overflow:visible;"/>
					</clipPath>
					<g class="st32">
						<path class="st3" d="M201.7,83.8l-4.1-0.7c0.5-0.3,1-0.4,1.5-0.3l4.1,0.7C202.7,83.4,202.2,83.5,201.7,83.8L201.7,83.8z"/>
					</g>
				</g>
				<g>
					<polygon class="st4" points="59.4,165.9 55.4,165.3 197.6,83.1 201.7,83.8 					"/>
				</g>
				<g>
					<polygon class="st4" points="88.8,286.7 84.8,286 53.6,170.2 57.7,170.8 					"/>
				</g>
				<g>
					<defs>
						<path id="SVGID_310_" d="M57.7,170.8l-4.1-0.7c-0.5-1.9,0.3-4,1.7-4.9l4.1,0.7C58,166.8,57.2,168.9,57.7,170.8z"/>
					</defs>
					<use xlink:href="#SVGID_310_"  style="overflow:visible;fill:#E5E3E8;"/>
					<clipPath id="SVGID_7_">
						<use xlink:href="#SVGID_310_"  style="overflow:visible;"/>
					</clipPath>
					<g style="clip-path:url(#SVGID_7_);">
						<path class="st4" d="M57.7,170.8l-4.1-0.7c-0.5-1.9,0.3-4,1.7-4.9l4.1,0.7C58,166.8,57.2,168.9,57.7,170.8L57.7,170.8z"/>
					</g>
				</g>
				<path class="st3" d="M201.7,83.8c1.5-0.8,3,0,3.5,1.8l31.1,115.9L88.8,286.7L57.7,170.8c-0.5-1.9,0.3-4,1.7-4.9L201.7,83.8z"/>
			</g>
		</g>
		<g>
			<path class="st3" d="M202.4,86.9L61,168.6c-0.2,0.1-0.5,0.8-0.3,1.4l0.7,2.7l142-82L202.4,86.9z"/>
			<polygon class="st3" points="88.8,274.8 90.7,282 232.8,200 230.8,192.8 			"/>
			<linearGradient id="SVGID_9_" gradientUnits="userSpaceOnUse" x1="114.9587" y1="118.1603" x2="181.8248" y2="256.7998">
				<stop  offset="7.619050e-02" style="stop-color:#AC44EE"/>
				<stop  offset="7.801442e-02" style="stop-color:#AC44EE"/>
				<stop  offset="0.2581" style="stop-color:#8937CB"/>
				<stop  offset="0.44" style="stop-color:#6E2CAF"/>
				<stop  offset="0.6237" style="stop-color:#5B259C"/>
				<stop  offset="0.8094" style="stop-color:#502090"/>
				<stop  offset="1" style="stop-color:#4C1F8C"/>
			</linearGradient>
			<polygon style="fill:url(#SVGID_9_);" points="230.8,192.8 98.9,269 88.8,274.8 77.1,231.1 71.6,210.6 65.6,188.3 61.4,172.7 
				91,155.6 133.3,131.2 172.3,108.7 203.4,90.7 212.2,123.3 			"/>
		</g>
		<g>
			<path class="st9" d="M128.5,127.7c0.9-0.5,1.9,0,2.2,1.2c0.3,1.2-0.2,2.6-1.1,3.1c-0.9,0.5-1.9,0-2.2-1.2
				C127.1,129.7,127.5,128.3,128.5,127.7z"/>
		</g>
		<polygon class="st3" points="171.8,229.1 163.1,234.1 164.8,240.3 173.4,235.3 		"/>
		<polygon class="st45" points="133.3,131.2 71.6,210.6 65.6,188.3 91,155.6 		"/>
		<polygon class="st45" points="212.2,123.3 98.9,269 88.8,274.8 77.1,231.1 172.3,108.7 203.4,90.7 		"/>
	</g>
</g>
<g class="st12">
	<g class="st2">
		<g>
			<polygon class="st216" points="435.4,317.9 394.6,299.9 353.3,275.9 326.6,291.4 303.2,304.8 281.7,317.3 230.4,346.9 
				205.6,361.2 284.3,411.2 295.5,411.2 375.4,365.1 426.7,335.5 446.1,324.1 			"/>
		</g>
	</g>
</g>
<g>
	<g>
		<polygon class="st8" points="347.1,264.9 439.4,315.5 439.4,318.6 284.2,408.2 284.2,299.9 		"/>
		<polygon class="st14" points="284.2,299.9 284.2,408.2 191.8,354.5 191.8,351.4 		"/>
	</g>
	<g>
		<g class="st2">
			<g>
				<polygon class="st13" points="191.8,351.4 284.2,405.1 370.2,355.4 424.1,324.3 439.4,315.5 428.2,308.9 390.4,287 347.1,261.8 
					318.9,278 294.4,292.2 271.8,305.2 217.9,336.3 				"/>
			</g>
		</g>
	</g>
	<g>
		<g>
			<path class="st26" d="M253.7,377.3c-1.6-0.9-1.5-1.9,0-2.8l2.1-1.2c1.7-1,3.4-0.7,4.6,0l4.9,2.8c1.5,0.9,1.5,1.8,0,2.7l-2.1,1.2
				c-1.5,0.8-3.1,0.9-4.7,0L253.7,377.3z M261.9,378.9l1.3-0.7c0.6-0.3,0.7-0.7,0-1.1l-4.3-2.5c-0.6-0.3-1.2-0.4-1.8,0l-1.4,0.8
				c-0.8,0.4-0.4,0.9,0,1.1l4.3,2.5C260.8,379.3,261.5,379.1,261.9,378.9z"/>
			<path class="st26" d="M261.8,372.6c-1.6-0.9-1.5-1.9,0-2.8l2.1-1.2c1.7-1,3.4-0.7,4.6,0l4.9,2.8c1.5,0.9,1.5,1.8,0,2.7l-2.1,1.2
				c-1.5,0.8-3.1,0.9-4.7,0L261.8,372.6z M270.1,374.2l1.3-0.7c0.6-0.3,0.7-0.7,0-1.1l-4.3-2.5c-0.6-0.3-1.2-0.4-1.8,0l-1.4,0.8
				c-0.8,0.4-0.4,0.9,0,1.1l4.3,2.5C269,374.6,269.6,374.4,270.1,374.2z"/>
			<path class="st26" d="M270,367.9c-1.6-0.9-1.5-1.9,0-2.8l2.1-1.2c1.7-1,3.4-0.7,4.6,0l4.9,2.8c1.5,0.9,1.5,1.8,0,2.7l-2.1,1.2
				c-1.5,0.8-3.1,0.9-4.7,0L270,367.9z M278.2,369.5l1.3-0.7c0.6-0.3,0.7-0.7,0-1.1l-4.3-2.5c-0.6-0.3-1.2-0.4-1.8,0l-1.4,0.8
				c-0.8,0.4-0.4,0.9,0,1.1l4.3,2.5C277.1,370,277.8,369.7,278.2,369.5z"/>
			<path class="st26" d="M278.1,363.2c-1.6-0.9-1.5-1.9,0-2.8l2.1-1.2c1.7-1,3.4-0.7,4.6,0l4.9,2.8c1.6,0.9,1.5,1.8,0,2.7l-2.1,1.2
				c-1.5,0.8-3.1,0.9-4.7,0L278.1,363.2z M286.3,364.8l1.3-0.7c0.6-0.3,0.7-0.7,0-1.1l-4.3-2.5c-0.6-0.3-1.2-0.4-1.8,0l-1.4,0.8
				c-0.8,0.4-0.4,0.9,0,1.1l4.3,2.5C285.2,365.3,285.9,365,286.3,364.8z"/>
			<path class="st26" d="M289.5,356.7c-1.6-0.9-1.5-1.9,0-2.8l2.1-1.2c1.7-1,3.4-0.7,4.6,0l4.9,2.8c1.5,0.9,1.5,1.8,0,2.7l-2.1,1.2
				c-1.5,0.8-3.1,0.9-4.7,0L289.5,356.7z M297.7,358.2l1.3-0.7c0.6-0.3,0.7-0.7,0-1.1l-4.3-2.5c-0.6-0.3-1.2-0.4-1.8,0l-1.4,0.8
				c-0.8,0.4-0.4,0.9,0,1.1l4.3,2.5C296.6,358.7,297.3,358.5,297.7,358.2z"/>
			<path class="st26" d="M297.6,352c-1.6-0.9-1.5-1.9,0-2.8l2.1-1.2c1.7-1,3.4-0.7,4.6,0l4.9,2.8c1.5,0.9,1.5,1.8,0,2.7l-2.1,1.2
				c-1.5,0.8-3.1,0.9-4.7,0L297.6,352z M305.8,353.5l1.3-0.7c0.6-0.3,0.7-0.7,0-1.1l-4.3-2.5c-0.6-0.3-1.2-0.4-1.8,0l-1.4,0.8
				c-0.8,0.4-0.4,0.9,0,1.1l4.3,2.5C304.7,354,305.4,353.8,305.8,353.5z"/>
			<path class="st26" d="M305.7,347.3c-1.6-0.9-1.5-1.9,0-2.8l2.1-1.2c1.7-1,3.4-0.7,4.6,0l4.9,2.8c1.5,0.9,1.5,1.8,0,2.7l-2.1,1.2
				c-1.5,0.8-3.1,0.9-4.7,0L305.7,347.3z M313.9,348.8l1.3-0.7c0.6-0.3,0.7-0.7,0-1.1l-4.3-2.5c-0.6-0.3-1.2-0.4-1.8,0l-1.4,0.8
				c-0.8,0.4-0.4,0.9,0,1.1l4.3,2.5C312.8,349.3,313.5,349.1,313.9,348.8z"/>
			<path class="st26" d="M313.8,342.6c-1.6-0.9-1.5-1.9,0-2.8l2.1-1.2c1.7-1,3.4-0.7,4.6,0l4.9,2.8c1.5,0.9,1.5,1.8,0,2.7l-2.1,1.2
				c-1.5,0.8-3.1,0.9-4.7,0L313.8,342.6z M322.1,344.1l1.3-0.7c0.6-0.3,0.7-0.7,0-1.1l-4.3-2.5c-0.6-0.3-1.2-0.4-1.8,0l-1.4,0.8
				c-0.8,0.4-0.4,0.9,0,1.1l4.3,2.5C321,344.6,321.6,344.4,322.1,344.1z"/>
			<path class="st26" d="M325.2,336c-1.6-0.9-1.5-1.9,0-2.8l2.1-1.2c1.7-1,3.4-0.7,4.6,0l4.9,2.8c1.5,0.9,1.5,1.8,0,2.7l-2.1,1.2
				c-1.5,0.8-3.1,0.9-4.7,0L325.2,336z M333.4,337.6l1.3-0.7c0.6-0.3,0.7-0.7,0-1.1l-4.3-2.5c-0.6-0.3-1.2-0.4-1.8,0l-1.4,0.8
				c-0.8,0.4-0.4,0.9,0,1.1l4.3,2.5C332.3,338.1,333,337.8,333.4,337.6z"/>
			<path class="st26" d="M333.3,331.4c-1.6-0.9-1.5-1.9,0-2.8l2.1-1.2c1.7-1,3.4-0.7,4.6,0l4.9,2.8c1.5,0.9,1.5,1.8,0,2.7l-2.1,1.2
				c-1.5,0.8-3.1,0.9-4.7,0L333.3,331.4z M341.6,332.9l1.3-0.7c0.6-0.3,0.7-0.7,0-1.1l-4.3-2.5c-0.6-0.3-1.2-0.4-1.8,0l-1.4,0.8
				c-0.8,0.4-0.4,0.9,0,1.1l4.3,2.5C340.4,333.4,341.1,333.2,341.6,332.9z"/>
			<path class="st26" d="M341.4,326.7c-1.6-0.9-1.5-1.9,0-2.8l2.1-1.2c1.7-1,3.4-0.7,4.6,0l4.9,2.8c1.5,0.9,1.5,1.8,0,2.7l-2.1,1.2
				c-1.5,0.8-3.1,0.9-4.7,0L341.4,326.7z M349.7,328.2l1.3-0.7c0.6-0.3,0.7-0.7,0-1.1l-4.3-2.5c-0.6-0.3-1.2-0.4-1.8,0l-1.4,0.8
				c-0.8,0.4-0.4,0.9,0,1.1l4.3,2.5C348.6,328.7,349.2,328.5,349.7,328.2z"/>
			<path class="st26" d="M349.6,322c-1.6-0.9-1.5-1.9,0-2.8l2.1-1.2c1.7-1,3.4-0.7,4.6,0l4.9,2.8c1.5,0.9,1.5,1.8,0,2.7l-2.1,1.2
				c-1.5,0.8-3.1,0.9-4.7,0L349.6,322z M357.8,323.5l1.3-0.7c0.6-0.3,0.7-0.7,0-1.1l-4.3-2.5c-0.6-0.3-1.2-0.4-1.8,0l-1.4,0.8
				c-0.8,0.4-0.4,0.9,0,1.1l4.3,2.5C356.7,324,357.4,323.8,357.8,323.5z"/>
			<path class="st26" d="M360.9,315.4c-1.6-0.9-1.5-1.9,0-2.8l2.1-1.2c1.7-1,3.4-0.7,4.6,0l4.9,2.8c1.5,0.9,1.5,1.8,0,2.7l-2.1,1.2
				c-1.5,0.8-3.1,0.9-4.7,0L360.9,315.4z M369.2,317l1.3-0.7c0.6-0.3,0.7-0.7,0-1.1l-4.3-2.5c-0.6-0.3-1.2-0.4-1.8,0l-1.4,0.8
				c-0.8,0.4-0.4,0.9,0,1.1l4.3,2.5C368,317.4,368.7,317.2,369.2,317z"/>
			<path class="st26" d="M369.1,310.7c-1.6-0.9-1.5-1.9,0-2.8l2.1-1.2c1.7-1,3.4-0.7,4.6,0l4.9,2.8c1.5,0.9,1.5,1.8,0,2.7l-2.1,1.2
				c-1.5,0.8-3.1,0.9-4.7,0L369.1,310.7z M377.3,312.3l1.3-0.7c0.6-0.3,0.7-0.7,0-1.1l-4.3-2.5c-0.6-0.3-1.2-0.4-1.8,0l-1.4,0.8
				c-0.8,0.4-0.4,0.9,0,1.1l4.3,2.5C376.2,312.7,376.9,312.5,377.3,312.3z"/>
			<path class="st26" d="M377.2,306c-1.6-0.9-1.5-1.9,0-2.8l2.1-1.2c1.7-1,3.4-0.7,4.6,0l4.9,2.8c1.5,0.9,1.5,1.8,0,2.7l-2.1,1.2
				c-1.5,0.8-3.1,0.9-4.7,0L377.2,306z M385.4,307.6l1.3-0.7c0.6-0.3,0.7-0.7,0-1.1l-4.3-2.5c-0.6-0.3-1.2-0.4-1.8,0l-1.4,0.8
				c-0.8,0.4-0.4,0.9,0,1.1l4.3,2.5C384.3,308.1,385,307.8,385.4,307.6z"/>
			<path class="st26" d="M385.3,301.3c-1.6-0.9-1.5-1.9,0-2.8l2.1-1.2c1.7-1,3.4-0.7,4.6,0l4.9,2.8c1.5,0.9,1.5,1.8,0,2.7l-2.1,1.2
				c-1.5,0.8-3.1,0.9-4.7,0L385.3,301.3z M393.6,302.9l1.3-0.7c0.6-0.3,0.7-0.7,0-1.1l-4.3-2.5c-0.6-0.3-1.2-0.4-1.8,0l-1.4,0.8
				c-0.8,0.4-0.4,0.9,0,1.1l4.3,2.5C392.4,303.4,393.1,303.1,393.6,302.9z"/>
		</g>
		<g>
			<path class="st17" d="M236.8,367.5l-6.7-3.8c-2.5-1.4-2.5-3.8,0-5.2l7.4-4.3c2.5-1.4,6.6-1.4,9.1,0l6.7,3.8
				c2.5,1.4,2.5,3.8,0,5.2l-7.4,4.3C243.4,369,239.3,369,236.8,367.5z"/>
			<g>
				<g>
					<path class="st26" d="M239.4,363.6c0.2-0.4,0-0.8-0.5-1.1c-0.5-0.3-1.3-0.4-1.9-0.3c-0.3,0.1-0.6,0.1-0.9,0.3
						c-0.8,0.5-0.8,1.2,0,1.6s2.1,0.5,2.8,0C239.2,364,239.3,363.8,239.4,363.6z"/>
					<g>
						<path class="st26" d="M237.8,355.4l0,0.8c3.1,0,6.1,0.7,8.5,2c2.3,1.3,3.5,3.1,3.5,4.9l1.4,0c0-2-1.3-4-3.9-5.5
							S241.3,355.4,237.8,355.4z"/>
						<path class="st26" d="M237.9,357.8l0,0.8c2,0,4,0.4,5.5,1.3c1.5,0.9,2.3,2,2.3,3.2l1.4,0c0-1.4-0.9-2.7-2.7-3.7
							C242.5,358.3,240.2,357.8,237.9,357.8z"/>
						<path class="st26" d="M237.9,360.2l0,0.8c0.9,0,1.8,0.2,2.5,0.6c0.7,0.4,1,0.9,1,1.4l1.4,0c0-0.7-0.5-1.5-1.4-2
							C240.4,360.5,239.1,360.2,237.9,360.2z"/>
					</g>
				</g>
			</g>
		</g>
		<g>
			<path class="st26" d="M274.9,342.2l2.4,1.4c2.5,1.4,2.5,3.8,0,5.3l-10.9,6.3c-2.5,1.4-6.6,1.4-9.1,0l-6.7-3.8
				c-2.5-1.4-2.5-3.8,0-5.3l10.9-6.3c2.5-1.4,6.6-1.4,9.1,0l2.4,1.4L274.9,342.2z"/>
			<g>
				<g>
					<g>
						<polygon class="st13" points="255.4,343.4 255.9,345.4 260.9,348.3 253.2,352.7 252,352.1 258.5,348.3 254.3,345.9 
							253.9,344.2 						"/>
					</g>
					<g>
						<polygon class="st13" points="271.2,352.5 269.7,353.3 266.8,353.1 262.6,350.7 256.1,354.4 254.9,353.8 262.6,349.3 
							267.6,352.2 						"/>
					</g>
				</g>
				<g>
					<g>
						<polygon class="st13" points="274.9,342.2 276.1,342.9 269.5,346.7 273.7,349.1 274.1,350.8 272.7,351.6 272.2,349.5 
							267.2,346.7 						"/>
					</g>
					<g>
						<polygon class="st13" points="271.9,340.5 273.1,341.2 265.4,345.6 260.5,342.8 256.9,342.5 258.3,341.6 261.3,341.9 
							265.4,344.3 						"/>
					</g>
				</g>
			</g>
		</g>
		<polygon class="st26" points="217.6,356.5 260.1,332 249.2,325.7 206.7,350.2 		"/>
		<g>
			<path class="st26" d="M403.6,318.1c4.6,2.7,4.7,7,0.1,9.6c-4.6,2.6-12.1,2.6-16.7,0c-4.6-2.7-4.7-7-0.1-9.6
				C391.5,315.4,399,315.4,403.6,318.1z"/>
			<path class="st14" d="M416,311c4.6,2.7,4.7,7,0.1,9.6c-4.6,2.6-12.1,2.6-16.7,0c-4.6-2.7-4.7-7-0.1-9.6
				C403.9,308.3,411.3,308.3,416,311z"/>
		</g>
		<g>
			<g>
				<path class="st26" d="M298.4,294.7c1-0.6,1.8-0.9,2.8-1.2l1.1,0.6c0,0-1.3,0.6-2.3,1.2c-1,0.6-1.1,0.9,1,2.2
					c1.6,0.9,2.6,1.2,3.8,0.6c1-0.6,2.1-1.3,2.1-1.3l1.1,0.6c-0.4,0.5-1.2,1-2.2,1.6c-1.8,1-3.8,0.6-6.1-0.7
					C297.3,296.9,296.5,295.8,298.4,294.7z"/>
				<path class="st26" d="M303.6,294l1.1-0.7l0.9,0.3c0-0.4,0.1-0.9,0.8-1.3c0.2-0.1,0.4-0.2,0.6-0.3l1.3,0.8
					c-0.2,0.1-0.5,0.2-0.8,0.4c-0.6,0.3-0.9,0.6-0.7,1.1l3.3,1.9l-1.4,0.8L303.6,294z"/>
				<path class="st26" d="M309.6,290.5c1.5-0.9,2.4-1.2,4.1-0.2c0.9,0.5,0.8,1-0.1,1.6l-1.6,0.9c0.9,0.5,1.3,0.4,2.1-0.1
					c0.8-0.5,1.2-0.7,1.8-1.2l0.9,0.5c-0.5,0.6-1.6,1.2-2.4,1.7c-1.3,0.8-2.5,0.5-4.4-0.6C307.7,292.1,308,291.5,309.6,290.5z
					 M312.2,291.6c0.3-0.2,0.3-0.3,0-0.5c-0.7-0.4-0.9-0.4-1.5,0c-0.7,0.4-0.9,0.6,0.2,1.2L312.2,291.6z"/>
				<path class="st26" d="M314.1,287.9c0.4-0.3,1.2-0.6,1.9-0.7l-2.7-1.6l1.4-0.8l7.7,4.4l-1.1,0.6l-0.8-0.2c-0.1,0.3-0.4,0.9-1,1.2
					c-1.3,0.7-2.7,0.4-4.3-0.5C313.4,289.5,312.6,288.7,314.1,287.9z M318.6,290.1c0.5-0.3,0.8-0.6,0.9-0.9l-2.6-1.5
					c-0.5,0.1-0.9,0.3-1.4,0.6c-0.4,0.2-0.4,0.5,0.9,1.3C317.6,290.3,318.1,290.4,318.6,290.1z"/>
				<path class="st26" d="M316.2,284.9c-0.1-0.1-0.2-0.2,0-0.3l1-0.6c0.1-0.1,0.3-0.1,0.5,0l0.9,0.5c0.1,0.1,0.1,0.2,0,0.3l-1,0.6
					c-0.1,0.1-0.3,0.1-0.5,0L316.2,284.9z M317.9,285.8l1.4-0.8l5.2,3l-1.4,0.8L317.9,285.8z"/>
				<path class="st26" d="M320.1,284.8l0.5-0.6l-1.2-1l1.1-0.7l1.4,0.8l1.2-0.7l1,0.6l-1.2,0.7l2.1,1.2c0.8,0.4,1.1,0.4,1.5,0.3
					c0,0,0.8-0.2,0.9-0.3l0.8,0.5l-1.2,0.7c-0.8,0.4-1.7,0.5-3.1-0.3l-2.3-1.3l-0.8,0.5L320.1,284.8z"/>
				<path class="st26" d="M326.6,278.4c1-0.6,1.8-0.9,2.8-1.2l1.1,0.6c0,0-1.3,0.6-2.3,1.2c-1,0.6-1.1,0.9,1,2.2
					c1.6,0.9,2.6,1.2,3.8,0.6c1-0.6,2.1-1.3,2.1-1.3l1.1,0.6c-0.4,0.5-1.2,1-2.2,1.6c-1.8,1-3.8,0.6-6.1-0.7
					C325.5,280.6,324.7,279.5,326.6,278.4z"/>
				<path class="st26" d="M335,279.8c-0.8-0.4-1-1.1,0.1-1.7c0,0,1.5-0.9,1.5-0.9c0,0-0.3-0.2-0.3-0.2c-0.6-0.3-0.9-0.2-1.3,0
					c-0.4,0.3-1.7,1.1-2.1,1.3l-0.8-0.5c0.4-0.5,1-1,2-1.6c1.1-0.6,2.2-0.9,3.5-0.1l3.6,2.1l-1.1,0.6l-0.9-0.2
					c0.1,0.1-0.1,0.8-0.9,1.3c-1,0.6-2.2,0.4-2.8,0L335,279.8z M337.6,279.2c0.6-0.3,0.8-0.9,0.8-0.9l-1-0.5l-1.1,0.8
					c-0.3,0.2-0.1,0.4,0.1,0.5l0.3,0.1C337.1,279.4,337.4,279.3,337.6,279.2z"/>
				<path class="st26" d="M336.8,274.9l1.1-0.7l0.9,0.3c0-0.4,0.1-0.9,0.8-1.3c0.2-0.1,0.4-0.2,0.6-0.3l1.3,0.8
					c-0.2,0.1-0.5,0.2-0.8,0.4c-0.6,0.3-0.9,0.6-0.7,1.1l3.3,1.9l-1.4,0.8L336.8,274.9z"/>
				<path class="st26" d="M342.2,271.7c0.4-0.3,1.2-0.6,1.9-0.7l-2.7-1.6l1.4-0.8l7.7,4.4l-1.1,0.6l-0.8-0.2c-0.1,0.3-0.4,0.9-1,1.2
					c-1.3,0.7-2.7,0.4-4.3-0.5C341.6,273.2,340.8,272.5,342.2,271.7z M346.7,273.9c0.5-0.3,0.8-0.6,0.9-0.9l-2.6-1.5
					c-0.5,0.1-0.9,0.3-1.4,0.6c-0.4,0.2-0.4,0.5,0.9,1.3C345.7,274.1,346.3,274.1,346.7,273.9z"/>
			</g>
		</g>
		<g>
			<g>
				<path class="st26" d="M272.8,392l1.4-0.8l5.4,3.1c0.5,0.3,0.8,0.1,1.1-0.1l2.4-1.4l1.3,0.7l-2.9,1.7c-0.8,0.4-1.8,0.7-2.9,0
					L272.8,392z"/>
				<path class="st26" d="M282.1,388.9c1.8-1,3-1,5.1,0.2c1.9,1.1,2,1.8,0.2,2.8c-1.8,1-3.1,0.9-4.9-0.1
					C280.3,390.6,280.3,389.9,282.1,388.9z M286.3,391.3c0.8-0.4,0.9-0.6-0.5-1.4c-1.5-0.8-1.8-0.8-2.6-0.4
					c-0.8,0.5-0.8,0.7,0.6,1.5C285.2,391.8,285.6,391.7,286.3,391.3z"/>
				<path class="st26" d="M285.3,387.1l1.1-0.7l0.9,0.3c0-0.4,0.1-0.9,0.8-1.3c0.2-0.1,0.4-0.2,0.6-0.3l1.3,0.8
					c-0.2,0.1-0.5,0.2-0.8,0.4c-0.6,0.3-0.9,0.6-0.7,1.1l3.3,1.9l-1.4,0.8L285.3,387.1z"/>
				<path class="st26" d="M291.3,383.6c1.5-0.9,2.4-1.2,4.1-0.2c0.9,0.5,0.8,1-0.1,1.6l-1.6,0.9c0.9,0.5,1.3,0.4,2.1-0.1
					c0.8-0.5,1.2-0.7,1.8-1.2l0.9,0.5c-0.5,0.6-1.6,1.2-2.4,1.7c-1.3,0.8-2.5,0.5-4.4-0.6C289.4,385.1,289.6,384.5,291.3,383.6z
					 M293.9,384.6c0.3-0.2,0.3-0.3,0-0.5c-0.7-0.4-0.9-0.4-1.5,0c-0.7,0.4-0.9,0.6,0.2,1.2L293.9,384.6z"/>
				<path class="st26" d="M294.2,381.9l1.1-0.6l0.8,0.2c0.1-0.5,0.2-0.8,1-1.3c0.7-0.4,1.4-0.5,2-0.4c0.1-0.5,0.4-1,1.2-1.5
					c1.1-0.7,2.3-0.4,3.4,0.2l3.4,2l-1.4,0.8l-3.5-2c-0.5-0.3-0.9-0.3-1.3-0.1c-0.5,0.3-0.8,0.6-0.9,1c0,0,0.3,0.1,0.3,0.2l3.5,2
					l-1.4,0.8l-3.5-2c-0.5-0.3-0.9-0.3-1.3-0.1c-0.5,0.3-0.7,0.5-0.8,1l3.7,2.2l-1.4,0.8L294.2,381.9z"/>
				<path class="st26" d="M303.3,374.4l1.4-0.8l7.2,4.1l-1.4,0.8L303.3,374.4z"/>
				<path class="st26" d="M307.5,374.2l1.1-0.6l0.8,0.2c0.1-0.3,0.4-0.9,1-1.2c1.3-0.7,2.8-0.4,4.3,0.6c1.5,0.9,2.4,1.7,1,2.5
					c-0.4,0.3-1.2,0.6-1.9,0.7l2.9,1.7l-1.3,0.8L307.5,374.2z M314.3,375.2c0.4-0.2,0.4-0.5-0.9-1.3c-1.2-0.7-1.8-0.7-2.2-0.5
					c-0.5,0.3-0.8,0.6-0.9,0.9l2.6,1.5C313.4,375.6,313.8,375.4,314.3,375.2z"/>
				<path class="st26" d="M314.1,372c-0.8-0.5-1.1-1-0.1-1.6c1-0.6,2.4-1.3,3-1.4l0.9,0.5l-2.3,1.3c-0.3,0.2-0.3,0.3,0,0.4l0.2,0.1
					c0.3,0.2,0.5,0.1,0.7,0l1.2-0.7c1-0.6,2-0.5,2.7,0l0.5,0.3c1.1,0.6,0.7,1.2,0.1,1.5c-1,0.6-2.6,1.4-3.2,1.5l-0.9-0.5l2.4-1.4
					c0.1-0.1,0.3-0.2,0-0.4l-0.2-0.1c-0.2-0.1-0.4-0.2-0.7,0l-1.2,0.7c-0.9,0.5-1.8,0.6-2.8,0L314.1,372z"/>
				<path class="st26" d="M317.8,368.3l1.4-0.8l3.5,2c0.5,0.3,0.9,0.3,1.3,0.1c0.5-0.3,0.7-0.6,0.8-1l-3.7-2.2l1.4-0.8l5.2,3
					l-1.1,0.6l-0.8-0.2c-0.2,0.5-0.2,0.9-1,1.3c-1.2,0.7-2.4,0.4-3.4-0.2L317.8,368.3z"/>
				<path class="st26" d="M323.2,365.2l1.1-0.6l0.8,0.2c0.1-0.5,0.2-0.8,1-1.3c0.7-0.4,1.4-0.5,2-0.4c0.1-0.5,0.4-1,1.2-1.5
					c1.1-0.7,2.3-0.4,3.4,0.2l3.4,2l-1.4,0.8l-3.5-2c-0.5-0.3-0.9-0.3-1.3-0.1c-0.5,0.3-0.8,0.6-0.9,1c0,0,0.3,0.1,0.3,0.2l3.5,2
					l-1.4,0.8l-3.5-2c-0.5-0.3-0.9-0.3-1.3-0.1c-0.5,0.3-0.7,0.5-0.8,1l3.7,2.2l-1.4,0.8L323.2,365.2z"/>
			</g>
		</g>
	</g>
	<polygon class="st45" points="294.4,292.2 428.2,308.9 390.4,287 318.9,278 	"/>
	<polygon class="st45" points="217.9,336.3 370.2,355.4 424.1,324.3 271.8,305.2 	"/>
</g>
</svg>
